<svg preserveAspectRatio="none" overflow="visible" style="display: block;" width="24" height="24" viewBox="0 0 24 24" fill="none" xmlns="http://www.w3.org/2000/svg">
<g id="lock_regular">
<path id="Vector" fill-rule="evenodd" clip-rule="evenodd" d="M11.38 2.043C9.081 2.27 7.078 3.863 6.329 6.06C6.13624 6.65893 6.02589 7.28131 6.001 7.91C6 7.999 5.995 8 5.398 8C4.996 8 4.704 8.021 4.522 8.062C3.85 8.215 3.25 8.801 3.073 9.477C3.01 9.719 3.005 10.157 3.005 15C3.005 19.843 3.01 20.281 3.073 20.523C3.253 21.212 3.86 21.795 4.549 21.941C4.955 22.027 19.045 22.027 19.451 21.941C19.822 21.863 20.092 21.709 20.401 21.401C20.709 21.092 20.863 20.822 20.941 20.451C21.027 20.047 21.027 9.953 20.941 9.549C20.795 8.86 20.212 8.253 19.523 8.073C19.331 8.023 19.09 8.004 18.63 8.002C18.004 8 18 7.999 17.999 7.91C17.9895 7.75176 17.9769 7.59373 17.961 7.436C17.8431 6.06395 17.2437 4.7778 16.269 3.805C14.98 2.491 13.23 1.86 11.38 2.043ZM12.773 4.083C13.4228 4.21009 14.0306 4.4972 14.5415 4.91835C15.0524 5.3395 15.4503 5.88139 15.699 6.495C15.847 6.853 16 7.524 16 7.816V8H8V7.816C8 7.534 8.151 6.856 8.289 6.521C9.028 4.72 10.902 3.701 12.773 4.083ZM19 15V20H5V10H19V15ZM11.477 12.073C10.631 12.294 10 13.117 10 14C10 14.631 10.373 15.337 10.87 15.646L11 15.727V16.436C11 17.278 11.037 17.431 11.306 17.7C11.486 17.879 11.764 18 12 18C12.237 18 12.514 17.88 12.697 17.697C12.959 17.435 13 17.262 13 16.416V15.727L13.138 15.641C13.351 15.51 13.663 15.144 13.798 14.869C13.869 14.724 13.939 14.491 13.967 14.31C14.0117 14.0256 13.9944 13.7349 13.9162 13.4579C13.8379 13.1808 13.7007 12.924 13.5138 12.705C13.3269 12.486 13.0948 12.31 12.8335 12.1892C12.5722 12.0684 12.2879 12.0055 12 12.005C11.857 12.005 11.622 12.036 11.477 12.073Z" fill="#00A996"/>
</g>
</svg>
