<svg preserveAspectRatio="none" overflow="visible" style="display: block;" width="24" height="24" viewBox="0 0 24 24" fill="none" xmlns="http://www.w3.org/2000/svg">
<g id="group_3_regular">
<path id="Vector" fill-rule="evenodd" clip-rule="evenodd" d="M11.358 3.061C10.7462 3.1634 10.1665 3.40623 9.66435 3.77043C9.16221 4.13462 8.75134 4.61026 8.464 5.16C8.25545 5.54388 8.11791 5.96226 8.058 6.395C7.986 6.79512 7.986 7.20488 8.058 7.605C8.1533 8.2244 8.39329 8.81259 8.75852 9.32185C9.12374 9.83111 9.60389 10.2471 10.16 10.536C10.347 10.632 10.615 10.749 10.755 10.797C11.05 10.897 11.68 11 12 11C12.32 11 12.95 10.897 13.245 10.797C14.229 10.462 15.076 9.739 15.536 8.84C15.7445 8.45612 15.8821 8.03774 15.942 7.605C16.014 7.20488 16.014 6.79512 15.942 6.395C15.8467 5.7756 15.6067 5.18741 15.2415 4.67815C14.8763 4.16889 14.3961 3.75292 13.84 3.464C13.4561 3.25545 13.0377 3.11791 12.605 3.058C12.1921 2.98898 11.7706 2.98999 11.358 3.061ZM12.492 5.06C12.852 5.153 13.118 5.31 13.404 5.596C13.7 5.891 13.852 6.157 13.94 6.529C14.053 7.00349 13.993 7.50272 13.771 7.937C13.638 8.2 13.196 8.64 12.93 8.775C12.642 8.92188 12.3233 8.99846 12 8.99846C11.6767 8.99846 11.358 8.92188 11.07 8.775C10.801 8.639 10.361 8.199 10.225 7.93C10.0781 7.642 10.0015 7.3233 10.0015 7C10.0015 6.6767 10.0781 6.358 10.225 6.07C10.362 5.8 10.801 5.361 11.071 5.225C11.5102 5.00355 12.0137 4.94509 12.492 5.06ZM4.96 7.062C4.033 7.261 3.255 8.046 3.06 8.98C2.97469 9.38668 2.9921 9.80822 3.11065 10.2065C3.2292 10.6048 3.44515 10.9672 3.73898 11.261C4.03281 11.5548 4.39524 11.7708 4.79351 11.8894C5.19178 12.0079 5.61331 12.0253 6.02 11.94C7.355 11.661 8.222 10.325 7.94 8.98C7.66 7.639 6.312 6.772 4.96 7.062ZM17.96 7.062C17.033 7.261 16.255 8.046 16.06 8.98C15.9747 9.38668 15.9921 9.80822 16.1106 10.2065C16.2292 10.6048 16.4452 10.9672 16.739 11.261C17.0328 11.5548 17.3952 11.7708 17.7935 11.8894C18.1918 12.0079 18.6133 12.0253 19.02 11.94C19.3811 11.8616 19.7205 11.7042 20.0135 11.4791C20.3066 11.254 20.5462 10.9667 20.715 10.638C21.09 9.876 21.09 9.124 20.715 8.362C20.225 7.368 19.071 6.824 17.96 7.062ZM5.724 9.062C5.78374 9.09229 5.83661 9.13454 5.87931 9.18614C5.92201 9.23775 5.95363 9.29758 5.9722 9.36194C5.99078 9.42629 5.9959 9.49377 5.98727 9.56019C5.97863 9.62661 5.95641 9.69054 5.922 9.748C5.87971 9.82266 5.81836 9.88477 5.74422 9.92798C5.67009 9.97119 5.58581 9.99396 5.5 9.99396C5.41419 9.99396 5.32991 9.97119 5.25578 9.92798C5.18164 9.88477 5.12029 9.82266 5.078 9.748C5.04386 9.69301 5.02124 9.63166 5.01152 9.56766C5.0018 9.50367 5.00517 9.43837 5.02144 9.37572C5.03771 9.31307 5.06654 9.25438 5.10617 9.2032C5.1458 9.15202 5.19541 9.10943 5.252 9.078C5.32159 9.03218 5.40248 9.00645 5.48575 9.00362C5.56902 9.0008 5.65146 9.021 5.724 9.062ZM18.724 9.062C18.8019 9.10741 18.8676 9.17094 18.9157 9.24719C18.9637 9.32345 18.9926 9.41017 19 9.5C19 9.748 18.748 10 18.5 10C18.256 10 18 9.748 18 9.508C18 9.257 18.248 9 18.492 9C18.5727 9.00509 18.6515 9.02617 18.724 9.062ZM11.2 12.047C8.698 12.261 6.194 13.752 5.335 15.54C4.466 17.347 5.35 18.911 7.595 19.538C8.938 19.913 11.183 20.077 13.38 19.959C15.968 19.82 17.408 19.399 18.283 18.523C19.408 17.399 19.194 15.755 17.73 14.264C17.183 13.708 16.54 13.261 15.7 12.856C14.304 12.181 12.798 11.91 11.2 12.047ZM3.595 13.217C2.579 13.519 1.611 14.259 1.238 15.018C1.047 15.404 0.982 15.723 1.017 16.1C1.09 16.902 1.734 17.518 2.78 17.783C3.191 17.887 3.469 17.873 3.724 17.734C4.548 17.286 4.34 16.079 3.404 15.881C3.269 15.852 3.149 15.815 3.139 15.798C3.104 15.742 3.504 15.421 3.764 15.294C3.905 15.226 4.128 15.14 4.26 15.102C4.843 14.936 5.12 14.608 5.12 14.085C5.12055 13.889 5.0617 13.6974 4.9512 13.5355C4.8407 13.3736 4.68374 13.2489 4.501 13.178C4.304 13.096 3.95 13.111 3.595 13.217ZM19.49 13.18C19.3096 13.2527 19.1551 13.3777 19.0463 13.539C18.9376 13.7003 18.8797 13.8905 18.88 14.085C18.88 14.608 19.157 14.936 19.74 15.102C19.872 15.14 20.095 15.226 20.236 15.294C20.496 15.421 20.896 15.742 20.861 15.798C20.851 15.815 20.731 15.852 20.596 15.881C20.306 15.942 20.076 16.101 19.9 16.362C19.791 16.523 19.78 16.57 19.78 16.863C19.78 17.153 19.792 17.206 19.901 17.383C20.123 17.742 20.551 17.921 20.98 17.835C22.182 17.592 22.905 16.967 22.983 16.1C23.054 15.317 22.639 14.557 21.792 13.919C21.017 13.334 19.934 12.987 19.49 13.18ZM13.215 14.118C14.875 14.45 16.347 15.372 16.865 16.402C17.126 16.923 16.991 17.191 16.331 17.459C15.457 17.814 13.966 18 12 18C8.986 18 7 17.534 7 16.827C7 16.542 7.279 16.077 7.702 15.656C8.513 14.848 9.713 14.285 11.1 14.061C11.621 13.977 12.65 14.005 13.215 14.118Z" fill="#00A996"/>
</g>
</svg>
