<svg width="32" height="32" viewBox="0 0 32 32" fill="none" xmlns="http://www.w3.org/2000/svg">
<rect width="32" height="32" rx="16" fill="#F7F9FC"/>
<path d="M8.79155 25.0411C6.30133 25.0411 4.27539 23.0152 4.27539 20.525C4.27539 18.0347 6.30133 16.0088 8.79155 16.0088C11.2818 16.0088 13.3077 18.0347 13.3077 20.525C13.3077 23.0152 11.2818 25.0411 8.79155 25.0411ZM8.79155 17.4312C7.08565 17.4312 5.6978 18.8191 5.6978 20.525C5.6978 22.2309 7.08565 23.6187 8.79155 23.6187C10.4975 23.6187 11.8853 22.2309 11.8853 20.525C11.8853 18.8191 10.4975 17.4312 8.79155 17.4312Z" fill="#414952"/>
<path d="M21.4359 13.0519C21.3755 12.9373 21.285 12.8413 21.1741 12.7744C21.0632 12.7074 20.9362 12.6721 20.8066 12.6721H13.1967L14.0489 10.8244C14.2135 10.4678 14.0577 10.0452 13.701 9.88077C13.3443 9.71619 12.9218 9.87204 12.7573 10.2287L11.6303 12.6721H10.4239C10.0311 12.6721 9.7127 12.9905 9.7127 13.3833C9.7127 13.776 10.0311 14.0945 10.4239 14.0945H10.9742L8.14553 20.2271C8.09552 20.3355 8.07358 20.4547 8.08174 20.5737C8.08991 20.6928 8.12791 20.8079 8.19224 20.9084C8.25657 21.0089 8.34518 21.0917 8.44988 21.1489C8.55458 21.2062 8.67201 21.2362 8.79136 21.2362H15.8935C16.0126 21.2385 16.1303 21.2108 16.2358 21.1556L16.236 21.1555C16.2362 21.1554 16.2364 21.1552 16.2366 21.1551L16.2374 21.1547L16.2375 21.1546L16.2482 21.149L16.2489 21.1486L16.2491 21.1485C16.3509 21.0928 16.4376 21.0129 16.5013 20.9158L21.3931 13.7857C21.4664 13.6789 21.5091 13.5541 21.5166 13.4247C21.5241 13.2954 21.4962 13.1665 21.4359 13.0519ZM9.90264 19.8138L12.1327 14.9789L14.7197 19.8138H9.90264ZM15.9822 19.1581L13.2727 14.0945H19.4562L15.9822 19.1581Z" fill="#00A996"/>
<path d="M20.8073 12.6721H16V14.0945H19.4568L16 19.1331V21.2299C16.0826 21.2192 16.1626 21.1941 16.2365 21.1556L16.2367 21.1555C16.2369 21.1554 16.2371 21.1553 16.2373 21.1552L16.2381 21.1548L16.2382 21.1547L16.2488 21.149L16.2495 21.1487L16.2497 21.1486C16.3516 21.0929 16.4382 21.013 16.5019 20.9159L21.3938 13.7857C21.5431 13.568 21.2912 13.2855 21.1681 13.052C21.0452 12.8183 21.0713 12.6721 20.8073 12.6721Z" fill="#008778"/>
<path d="M23.483 25.0411C20.9927 25.0411 18.9668 23.0152 18.9668 20.525C18.9668 18.0347 20.9927 16.0088 23.483 16.0088C25.9732 16.0088 27.9991 18.0347 27.9991 20.525C27.9991 23.0152 25.9732 25.0411 23.483 25.0411ZM23.483 17.4312C21.7771 17.4312 20.3892 18.8191 20.3892 20.525C20.3892 22.2309 21.7771 23.6187 23.483 23.6187C25.1889 23.6187 26.5767 22.2309 26.5767 20.525C26.5767 18.8191 25.1888 17.4312 23.483 17.4312Z" fill="#23272B"/>
<path d="M23.4836 21.2364C23.1964 21.2364 22.9259 21.0612 22.8182 20.7766L19.0362 10.7783C18.9955 10.6706 18.9815 10.5547 18.9955 10.4405C19.0095 10.3262 19.0509 10.2171 19.1163 10.1224C19.1817 10.0278 19.2692 9.95036 19.3711 9.89688C19.473 9.84341 19.5863 9.81546 19.7014 9.81543H23.6444C24.0371 9.81543 24.3556 10.1339 24.3556 10.5266V11.6902C24.3556 12.485 23.7089 13.1316 22.9141 13.1316C22.5213 13.1316 22.2029 12.8132 22.2029 12.4204C22.2029 12.0277 22.5213 11.7092 22.9141 11.7092C22.9191 11.7092 22.924 11.7072 22.9276 11.7036C22.9311 11.7001 22.9331 11.6952 22.9332 11.6902V11.2378H20.7308L24.1487 20.2734C24.2876 20.6408 24.1024 21.0512 23.735 21.1902C23.6547 21.2207 23.5695 21.2364 23.4836 21.2364Z" fill="#00A996"/>
<path d="M14.7606 11.2378H10.4241C10.0313 11.2378 9.71289 10.9194 9.71289 10.5266C9.71289 10.1339 10.0313 9.81543 10.4241 9.81543H14.7606C15.1533 9.81543 15.4718 10.1339 15.4718 10.5266C15.4718 10.9194 15.1533 11.2378 14.7606 11.2378Z" fill="#23272B"/>
<path d="M10.4246 14.0945H4.71121C4.31843 14.0945 4 13.7761 4 13.3833V7.66995C4 7.27717 4.31843 6.95874 4.71121 6.95874H10.4246C10.8173 6.95874 11.1358 7.27717 11.1358 7.66995V13.3833C11.1358 13.7761 10.8173 14.0945 10.4246 14.0945Z" fill="#F5B546"/>
<path d="M10.425 6.95874H7.56836V14.0945H10.425C10.8178 14.0945 11.1362 13.7761 11.1362 13.3833V7.66995C11.1362 7.27717 10.8178 6.95874 10.425 6.95874Z" fill="#C57D00"/>
<path d="M7.9344 11.2378H7.19949C6.80671 11.2378 6.48828 10.9194 6.48828 10.5266C6.48828 10.1339 6.80671 9.81543 7.19949 9.81543H7.9344C8.32718 9.81543 8.64561 10.1339 8.64561 10.5266C8.64561 10.9194 8.32718 11.2378 7.9344 11.2378Z" fill="#414952"/>
<path d="M7.93582 9.81543H7.56836V11.2378H7.93582C8.32859 11.2378 8.64702 10.9194 8.64702 10.5266C8.64702 10.1339 8.32859 9.81543 7.93582 9.81543Z" fill="#23272B"/>
</svg>
