<svg width="32" height="32" viewBox="0 0 32 32" fill="none" xmlns="http://www.w3.org/2000/svg">
<rect width="32" height="32" rx="16" fill="#F7F9FC"/>
<g clip-path="url(#clip0_0_76)">
<path d="M23.5 13.75C24.3284 13.75 25 13.0784 25 12.25C25 11.4216 24.3284 10.75 23.5 10.75C22.6716 10.75 22 11.4216 22 12.25C22 13.0784 22.6716 13.75 23.5 13.75Z" fill="#B7DBF9"/>
<path d="M14.5 17.5H6.625C6.00368 17.5 5.5 18.0037 5.5 18.625V19C5.5 19.6213 6.00368 20.125 6.625 20.125H14.5C15.1213 20.125 15.625 19.6213 15.625 19V18.625C15.625 18.0037 15.1213 17.5 14.5 17.5Z" fill="#B7DBF9"/>
<path d="M10 28C11.6569 28 13 26.6569 13 25C13 23.3431 11.6569 22 10 22C8.34315 22 7 23.3431 7 25C7 26.6569 8.34315 28 10 28Z" fill="#00443C"/>
<path d="M10 26.5C10.8284 26.5 11.5 25.8284 11.5 25C11.5 24.1716 10.8284 23.5 10 23.5C9.17157 23.5 8.5 24.1716 8.5 25C8.5 25.8284 9.17157 26.5 10 26.5Z" fill="#FFFEFF"/>
<path d="M23.875 28C25.5319 28 26.875 26.6569 26.875 25C26.875 23.3431 25.5319 22 23.875 22C22.2181 22 20.875 23.3431 20.875 25C20.875 26.6569 22.2181 28 23.875 28Z" fill="#00443C"/>
<path d="M23.875 26.5C24.7034 26.5 25.375 25.8284 25.375 25C25.375 24.1716 24.7034 23.5 23.875 23.5C23.0466 23.5 22.375 24.1716 22.375 25C22.375 25.8284 23.0466 26.5 23.875 26.5Z" fill="#FFFEFF"/>
<path d="M24.0025 20.2113L23.8038 20.1737L22.21 14.125H23.5C23.5995 14.125 23.6948 14.0855 23.7652 14.0152C23.8355 13.9448 23.875 13.8495 23.875 13.75V10.75C23.875 10.6505 23.8355 10.5552 23.7652 10.4848C23.6948 10.4145 23.5995 10.375 23.5 10.375H20.875C20.4446 10.3755 20.0275 10.524 19.6937 10.7957C19.3599 11.0673 19.1297 11.4455 19.0418 11.8668C18.9538 12.2881 19.0135 12.7268 19.2107 13.1093C19.408 13.4918 19.7308 13.7948 20.125 13.9675V22.75H15.2162C15.0676 21.4683 14.4352 20.2917 13.4481 19.4606C12.4611 18.6296 11.194 18.2068 9.9057 18.2786C8.6174 18.3504 7.40514 18.9114 6.51659 19.847C5.62805 20.7826 5.13028 22.0222 5.125 23.3125V25C5.125 25.0995 5.16451 25.1948 5.23483 25.2652C5.30516 25.3355 5.40054 25.375 5.5 25.375H27.625C27.7245 25.375 27.8198 25.3355 27.8902 25.2652C27.9605 25.1948 28 25.0995 28 25C27.9985 23.8604 27.5977 22.7574 26.8674 21.8826C26.1372 21.0077 25.1235 20.4164 24.0025 20.2113Z" fill="#008778"/>
<path d="M20.875 12.625H18.625C18.5255 12.625 18.4302 12.5855 18.3598 12.5152C18.2895 12.4448 18.25 12.3495 18.25 12.25C18.25 12.1505 18.2895 12.0552 18.3598 11.9848C18.4302 11.9145 18.5255 11.875 18.625 11.875H20.875C20.9745 11.875 21.0698 11.9145 21.1402 11.9848C21.2105 12.0552 21.25 12.1505 21.25 12.25C21.25 12.3495 21.2105 12.4448 21.1402 12.5152C21.0698 12.5855 20.9745 12.625 20.875 12.625Z" fill="#B7DBF9"/>
<path d="M17.3754 17.4999L17.1242 22.0412C17.1242 22.2401 17.0451 22.4308 16.9045 22.5715C16.7638 22.7121 16.5731 22.7912 16.3742 22.7912C16.1752 22.7912 15.9845 22.7121 15.8438 22.5715C15.7032 22.4308 15.6242 22.2401 15.6242 22.0412L15.4104 18.1674L13.8917 17.4999H10.9742C10.7718 17.4998 10.572 17.4541 10.3896 17.3664C10.2073 17.2786 10.047 17.151 9.92059 16.9929C9.79421 16.8349 9.70498 16.6504 9.65951 16.4532C9.61404 16.256 9.61349 16.0511 9.65791 15.8537L10.7492 10.8812C10.8504 10.4236 11.103 10.0137 11.4662 9.7176C11.8294 9.42153 12.2819 9.25668 12.7504 9.24974C13.219 9.2428 13.6761 9.39417 14.0479 9.67935C14.4197 9.96453 14.6844 10.3668 14.7992 10.8212C14.3823 10.5491 13.9518 10.2988 13.5092 10.0712C13.3277 9.99433 13.1329 9.954 12.9358 9.95247C12.7387 9.95094 12.5433 9.98824 12.3607 10.0622C12.178 10.1362 12.0118 10.2455 11.8713 10.3837C11.7309 10.522 11.6191 10.6866 11.5423 10.868C11.4655 11.0495 11.4251 11.2443 11.4236 11.4414C11.4221 11.6384 11.4594 11.8339 11.5334 12.0165C11.6828 12.3854 11.9727 12.6797 12.3392 12.8349L14.8742 13.9149V15.5087L16.9142 16.6524C17.0624 16.7367 17.1841 16.8607 17.2656 17.0104C17.3471 17.1602 17.3851 17.3297 17.3754 17.4999Z" fill="#00A996"/>
<path d="M19.5353 13L16.1978 13.9075C16.0288 13.9533 15.8493 13.9414 15.6878 13.8738L12.4966 12.5238C12.3592 12.4662 12.2345 12.3821 12.1296 12.2762C12.0247 12.1704 11.9417 12.045 11.8852 11.9071C11.7713 11.6286 11.7727 11.3163 11.8891 11.0388C12.0054 10.7613 12.2272 10.5414 12.5057 10.4275C12.7842 10.3136 13.0966 10.3149 13.3741 10.4313C13.4416 10.4575 13.2428 10.345 16.1678 12.0475L19.2128 11.5188C19.402 11.4881 19.5957 11.531 19.7542 11.6386C19.9128 11.7462 20.0241 11.9105 20.0654 12.0976C20.1066 12.2847 20.0747 12.4806 19.9761 12.6449C19.8776 12.8092 19.7198 12.9296 19.5353 12.9813V13Z" fill="#00A996"/>
<path d="M9.25 11.5H4.75C4.33579 11.5 4 11.8358 4 12.25V16.75C4 17.1642 4.33579 17.5 4.75 17.5H9.25C9.66421 17.5 10 17.1642 10 16.75V12.25C10 11.8358 9.66421 11.5 9.25 11.5Z" fill="#F5B546"/>
<path d="M6.25 11.5H7.75V13H6.25V11.5Z" fill="#C57D00"/>
<path d="M13 24.25H7V23.5C7 22.7044 7.31607 21.9413 7.87868 21.3787C8.44129 20.8161 9.20435 20.5 10 20.5C10.7956 20.5 11.5587 20.8161 12.1213 21.3787C12.6839 21.9413 13 22.7044 13 23.5V24.25Z" fill="#B7DBF9"/>
<path d="M10.75 23.5H9.25C9.15054 23.5 9.05516 23.4605 8.98484 23.3902C8.91451 23.3198 8.875 23.2245 8.875 23.125C8.875 23.0255 8.91451 22.9302 8.98484 22.8598C9.05516 22.7895 9.15054 22.75 9.25 22.75H10.75C10.8495 22.75 10.9448 22.7895 11.0152 22.8598C11.0855 22.9302 11.125 23.0255 11.125 23.125C11.125 23.2245 11.0855 23.3198 11.0152 23.3902C10.9448 23.4605 10.8495 23.5 10.75 23.5Z" fill="#FFFEFF"/>
<path d="M16 6.25002C16.0008 6.61524 15.9127 6.97516 15.7433 7.29872C15.5739 7.62227 15.3283 7.89973 15.0277 8.10712C14.7271 8.31451 14.3805 8.44561 14.0178 8.48908C13.6552 8.53256 13.2875 8.48711 12.9463 8.35666C12.6052 8.22621 12.301 8.01468 12.0599 7.74034C11.8188 7.466 11.6481 7.1371 11.5626 6.78204C11.477 6.42697 11.4792 6.05643 11.5689 5.7024C11.6586 5.34837 11.8332 5.0215 12.0775 4.75002C12.0775 4.75002 14.2825 3.58377 15.5575 5.45877L16 6.11127C16.0038 6.15744 16.0038 6.20385 16 6.25002Z" fill="#008778"/>
<path d="M15.7038 5.12495C15.5259 4.81678 15.2776 4.55518 14.979 4.36162C14.6805 4.16805 14.3403 4.04805 13.9864 4.01145C13.6325 3.97485 13.2749 4.0227 12.9431 4.15108C12.6113 4.27945 12.3146 4.48469 12.0775 4.74995H12.25C12.3495 4.74995 12.4448 4.78946 12.5152 4.85978C12.5855 4.93011 12.625 5.02549 12.625 5.12495C12.625 5.2244 12.5855 5.31979 12.5152 5.39011C12.4448 5.46044 12.3495 5.49995 12.25 5.49995H11.6313C11.5437 5.74029 11.4993 5.99418 11.5 6.24995H17.47C17.5774 6.24995 17.6804 6.20728 17.7564 6.13133C17.8323 6.05537 17.875 5.95236 17.875 5.84495C17.8747 5.74911 17.8408 5.65642 17.7791 5.58308C17.7174 5.50974 17.6319 5.4604 17.5375 5.4437L15.7038 5.12495Z" fill="#00A996"/>
</g>
<defs>
<clipPath id="clip0_0_76">
<rect width="24" height="24" fill="white" transform="translate(4 4)"/>
</clipPath>
</defs>
</svg>
