<svg width="16" height="16" viewBox="0 0 16 16" fill="none" xmlns="http://www.w3.org/2000/svg">
<path d="M10.3182 2.04875C9.86758 2.16675 9.47691 2.56675 9.37491 3.01475C9.34091 3.16342 9.33358 3.39408 9.33358 4.26542V5.33342H7.93225C6.36558 5.33342 6.29291 5.34008 6.00958 5.51008C5.69558 5.69742 5.46758 5.99208 5.38225 6.31808C5.34491 6.46275 5.33625 6.62408 5.33491 7.24675L5.33358 8.00008H3.93225C2.36558 8.00008 2.29291 8.00675 2.00958 8.17675C1.69558 8.36408 1.46758 8.65875 1.38225 8.98475C1.34158 9.14208 1.33691 9.34675 1.33691 11.0001C1.33691 12.6534 1.34158 12.8581 1.38225 13.0154C1.50225 13.4748 1.90691 13.8634 2.36625 13.9608C2.63758 14.0181 13.3629 14.0181 13.6342 13.9608C13.8816 13.9088 14.0616 13.8061 14.2676 13.6008C14.4729 13.3948 14.5756 13.2148 14.6276 12.9674C14.6849 12.6967 14.6849 3.30342 14.6276 3.03275C14.5302 2.57342 14.1416 2.16875 13.6822 2.04875C13.5262 2.00808 13.3389 2.00342 12.0002 2.00342C10.6616 2.00342 10.4742 2.00808 10.3182 2.04875ZM13.3336 8.00008V12.6668H10.6669V3.33342H13.3336V8.00008ZM9.33358 9.66675V12.6668H6.66691V6.66675H9.33358V9.66675ZM5.33358 11.0001V12.6668H2.66691V9.33342H5.33358V11.0001Z" fill-rule="evenodd" clip-rule="evenodd" fill="#6A6E74"/>
</svg>
